<svg width="28" height="16" viewBox="0 0 28 16" fill="none" xmlns="http://www.w3.org/2000/svg">
<g clip-path="url(#clip0_2213_201)">
<path d="M7.95455 6.75475L8.61655 7.77943L9.3006 6.76156H9.84867V7.07608L8.99142 8.35585L9.84867 9.72416V6.76156H11.3959C11.6886 6.76156 12.1177 6.9442 12.1177 7.76333C12.1177 8.91246 11.5531 8.92608 11.2439 8.92608H10.4404V10.0387H9.29509L8.59542 8.94837L7.87875 10.0306H5.60148V6.75413L7.95455 6.75475ZM14.9646 6.75475H16.9162V7.46119H15.5618V8.07476H16.8785V8.69638H15.5618V9.34524H16.9162V10.0313H14.9646V6.75475ZM12.9974 10.0393H12.4002V6.76217H13.9525C14.2461 6.76217 14.6692 6.93801 14.6692 7.6395C14.6692 8.03575 14.5824 8.32737 14.2567 8.54717C14.5387 8.59112 14.6476 8.84002 14.6476 9.36629L14.6692 10.0393H14.0881L14.072 9.43873C14.0669 9.16136 13.9852 8.88336 13.7793 8.88336H12.9974V10.0393ZM20.664 8.03204C21.3986 8.08157 21.4592 8.57627 21.4592 9.10254C21.4592 9.71673 21.0848 10.0461 20.6938 10.0461H19.4401V9.34462H20.4173C20.5831 9.34462 20.8298 9.34462 20.8298 9.02886C20.8298 8.87903 20.7862 8.7843 20.6098 8.7583C20.4727 8.74034 20.3353 8.72754 20.1977 8.71991C19.5348 8.69638 19.3809 8.25245 19.3809 7.71132C19.3809 7.09713 19.7011 6.76094 20.092 6.76094H21.3457V7.46366H20.4283C20.2197 7.46738 19.9942 7.43023 19.9942 7.74909C19.9942 7.94969 20.1058 7.98994 20.2464 8.00913C20.2951 8.00975 20.6208 8.03204 20.664 8.03204ZM18.4276 8.03204C19.1617 8.08157 19.2228 8.57627 19.2228 9.10254C19.2228 9.71673 18.848 10.0461 18.4575 10.0461H17.2033V9.34462H18.1804C18.3458 9.34462 18.5934 9.34462 18.5934 9.02886C18.5934 8.87903 18.5498 8.7843 18.3734 8.7583C18.2944 8.74344 18.004 8.72115 17.9613 8.71991C17.2984 8.69638 17.1445 8.25245 17.1445 7.71132C17.1445 7.09713 17.4647 6.76094 17.8552 6.76094H19.1094V7.46366H18.1919C17.9829 7.46738 17.7578 7.43023 17.7578 7.74909C17.7578 7.94969 17.869 7.98994 18.0105 8.00913C18.0587 8.00975 18.3844 8.03204 18.4276 8.03204ZM10.5598 4.40633H9.96261V1.1292H11.5149C11.808 1.1292 12.2321 1.30504 12.2321 2.00653C12.2321 2.40216 12.1452 2.69502 11.8195 2.91419C12.1016 2.95815 12.2105 3.20705 12.2105 3.73332L12.2321 4.40633H11.6514L11.6348 3.80638C11.6293 3.52839 11.5485 3.25101 11.3417 3.25101H10.5603L10.5598 4.40633ZM12.5362 4.40633H13.133V1.12549H12.5362V4.40633ZM7.66926 1.1292H9.62035V1.83503H8.2674V2.44984H9.58314V3.07208H8.2674V3.71908H9.62035V4.40633H7.66926V1.1292ZM3.3118 4.40633H4.51407V1.97433L5.31159 4.40633H5.85461L6.67097 2.01458V4.40633H7.26774V1.1292H6.31539L5.58264 3.32778L4.85265 1.1292H3.91638V4.2856L2.87399 1.1292H2.08473L1.02075 4.40633H1.6506L1.88351 3.67512H3.07475L3.3118 4.40633ZM16.5684 3.67698H15.3776L15.1442 4.40819H14.3568C13.6948 4.40819 13.4013 3.66026 13.4155 2.75322C13.4357 1.4072 14.026 1.12735 14.2975 1.12735H15.0767V1.8406H14.7078C14.3113 1.8406 14.0022 1.89632 14.0022 2.66406V2.90181C14.0049 3.47947 14.2296 3.6163 14.3734 3.65655C14.4087 3.66769 14.474 3.67203 14.4978 3.66955L14.756 3.66769L15.5784 1.1292H16.3685L17.3861 4.20511V1.12735H18.2677L19.2747 3.39651V1.12735H19.8715V4.40819H19.0574L17.9829 2.00839V4.40819H16.805L16.5684 3.67698Z" fill="white"/>
<g filter="url(#filter0_i_2213_201)">
<path d="M10.4407 8.2544H11.1845C11.4284 8.2544 11.5152 8.06371 11.5152 7.84453C11.5152 7.68355 11.4367 7.46871 11.1868 7.46871H10.4407V8.2544ZM7.55287 7.46128H6.199V8.07485H7.51473V8.69647H6.199V9.34534H7.57492L8.23187 8.35656L7.65072 7.46438L7.55287 7.46128ZM12.9973 8.21106H13.741C13.985 8.21106 14.0718 8.06433 14.0718 7.84453C14.0718 7.68355 13.9933 7.46871 13.7433 7.46871H12.9973V8.21106ZM10.5597 2.57809H11.3034C11.5478 2.57809 11.6342 2.43197 11.6342 2.21218C11.6342 2.05182 11.5557 1.83512 11.3057 1.83512H10.5597V2.57809ZM2.84397 2.97001H2.11719L2.47369 1.82397L2.84397 2.97001ZM15.9664 1.82583L15.6108 2.97125H16.3404L15.9664 1.82583Z" fill="#6CB35E"/>
</g>
<path d="M26.2943 5.19141L18.9893 15.0358H20.0266L26.2943 6.58943V5.19141Z" fill="#666666"/>
<path d="M26.4836 7.49902L21.2234 14.5888H22.2598L26.4836 8.89767V7.49902Z" fill="#D0D1D3"/>
<path d="M26.6747 9.80688L23.4575 14.1415H24.4958L26.6747 11.2043V9.80688Z" fill="#808080"/>
</g>
<defs>
<filter id="filter0_i_2213_201" x="2.11719" y="1.82397" width="14.2231" height="11.5212" filterUnits="userSpaceOnUse" color-interpolation-filters="sRGB">
<feFlood flood-opacity="0" result="BackgroundImageFix"/>
<feBlend mode="normal" in="SourceGraphic" in2="BackgroundImageFix" result="shape"/>
<feColorMatrix in="SourceAlpha" type="matrix" values="0 0 0 0 0 0 0 0 0 0 0 0 0 0 0 0 0 0 127 0" result="hardAlpha"/>
<feOffset dy="4"/>
<feGaussianBlur stdDeviation="2"/>
<feComposite in2="hardAlpha" operator="arithmetic" k2="-1" k3="1"/>
<feColorMatrix type="matrix" values="0 0 0 0 0 0 0 0 0 0 0 0 0 0 0 0 0 0 0.25 0"/>
<feBlend mode="normal" in2="shape" result="effect1_innerShadow_2213_201"/>
</filter>
<clipPath id="clip0_2213_201">
<rect width="27" height="15" fill="white" transform="translate(0.5 0.191406)"/>
</clipPath>
</defs>
</svg>
