<svg width="46" height="23" viewBox="0 0 46 23" fill="none" xmlns="http://www.w3.org/2000/svg">
<path fill-rule="evenodd" clip-rule="evenodd" d="M14.1746 0C6.33397 0 0 5.13495 0 11.4999C0 17.8341 6.29543 22.9693 14.1746 22.9693V23H31.8254C39.7428 23 46 17.8648 46 11.4999C46 5.13495 39.5884 0 31.671 0C31.7872 0.0306815 14.2905 0 14.1746 0ZM14.1746 0.461359C21.7449 0.461359 27.77 5.38108 27.77 11.4999C27.77 17.6189 21.7446 22.5389 14.1746 22.5389C6.64312 22.5389 0.540653 17.6189 0.540653 11.4999C0.540653 5.38108 6.64312 0.461359 14.1746 0.461359ZM16.569 19.0641V3.93587C20.7403 4.79677 23.7913 7.81015 23.7913 11.4999C23.7916 15.1898 20.7406 18.2339 16.569 19.0641ZM11.8184 3.90519V19.0946C7.60853 18.2646 4.59583 15.2205 4.59583 11.4999C4.59583 7.81015 7.60853 4.73518 11.8184 3.90519Z" fill="#828282"/>
</svg>
