<svg width="37" height="34" viewBox="0 0 37 34" fill="none" xmlns="http://www.w3.org/2000/svg">
<path fill-rule="evenodd" clip-rule="evenodd" d="M18.4707 25.3179C19.5557 24.383 20.4218 23.2443 21.0136 21.9749C21.6054 20.7054 21.9097 19.3331 21.907 17.946C21.9097 16.559 21.6054 15.1867 21.0136 13.9172C20.4219 12.6477 19.5557 11.509 18.4707 10.5742C16.6154 8.97472 14.1542 8 11.4534 8C5.68032 8 1 12.4529 1 17.946C1 23.439 5.68032 27.8921 11.4534 27.8921C14.1542 27.8921 16.6156 26.9173 18.4707 25.3179Z" fill="#D0D1D3"/>
<path fill-rule="evenodd" clip-rule="evenodd" d="M25.488 8C22.7872 8 20.3256 8.97472 18.4707 10.5742C18.0924 10.9007 17.7397 11.2526 17.4153 11.6273H19.5253C19.815 11.9617 20.0814 12.3135 20.3228 12.6805H16.6183C16.3953 13.0199 16.1941 13.3716 16.0157 13.7337H20.9246C21.0935 14.0764 21.2416 14.428 21.3681 14.7867H15.573C15.4515 15.1322 15.3502 15.4838 15.2695 15.8398H21.6718C21.8286 16.5321 21.9074 17.2381 21.9071 17.946C21.9071 19.0502 21.7174 20.1126 21.3683 21.1052H15.573C15.6991 21.464 15.8469 21.8156 16.0157 22.1584H20.9246C20.7465 22.5205 20.5455 22.8722 20.3226 23.2116H16.6183C16.8595 23.5786 17.1257 23.9304 17.4151 24.2648H19.5253C19.2014 24.6396 18.8489 24.9916 18.4707 25.318C20.3256 26.9175 22.7872 27.8922 25.488 27.8922C31.2609 27.8922 35.9414 23.4391 35.9414 17.9462C35.9414 12.4529 31.2609 8 25.488 8Z" fill="#9E9E9E"/>
<path fill-rule="evenodd" clip-rule="evenodd" d="M30.4086 20.5818C30.4086 20.4096 30.541 20.27 30.7043 20.27C30.8676 20.27 31 20.4096 31 20.5818C31 20.754 30.8676 20.8934 30.7043 20.8934C30.541 20.8934 30.4086 20.7539 30.4086 20.5818ZM30.7042 20.8184C30.8282 20.8184 30.9288 20.7124 30.9288 20.5817C30.9288 20.4505 30.8282 20.3446 30.7042 20.3446C30.5798 20.3446 30.4795 20.4505 30.4795 20.5817C30.4795 20.7124 30.58 20.8184 30.7042 20.8184ZM30.6642 20.7184H30.6035V20.4446H30.7135C30.7362 20.4446 30.7598 20.4449 30.7796 20.4586C30.79 20.4662 30.7985 20.4764 30.8043 20.4883C30.8101 20.5002 30.813 20.5134 30.8128 20.5267C30.8128 20.5579 30.7958 20.5866 30.7678 20.5976L30.8158 20.7183H30.7487L30.7087 20.6099H30.6644V20.7184V20.5633H30.6979C30.7104 20.5633 30.7241 20.5644 30.7348 20.558C30.7396 20.5545 30.7435 20.5498 30.7462 20.5443C30.7488 20.5388 30.7502 20.5327 30.7501 20.5265C30.75 20.521 30.7486 20.5155 30.7461 20.5106C30.7435 20.5057 30.7398 20.5016 30.7354 20.4985C30.7249 20.4921 30.7079 20.4935 30.6968 20.4935H30.6646V20.7184H30.6642ZM10.9658 20.8934H9.8259L10.5033 17.1318L8.94359 20.8934H7.9042L7.71422 17.1533L7.03465 20.8934H6L6.88411 16.0002H8.6628L8.75689 19.0295L10.011 16.0002H11.8644L10.9658 20.8934V20.8934ZM23.7048 20.8446C23.3929 20.9348 23.1491 20.9736 22.8856 20.9736C22.3024 20.9736 21.984 20.6654 21.984 20.0998C21.984 19.9879 21.9958 19.8687 22.0175 19.7428L22.0869 19.3537L22.1403 19.0388L22.6686 16H23.8023L23.638 16.9139H24.2197L24.0634 17.8813H23.4793L23.1788 19.5416C23.1677 19.5959 23.1612 19.651 23.1594 19.7065C23.1594 19.9121 23.2773 20.0014 23.5483 20.0014C23.6781 20.0014 23.7787 19.9891 23.8558 19.9643L23.7048 20.8446ZM27.034 16.9466C26.9385 16.9068 26.9161 16.9069 26.9049 16.9036C26.8445 16.8896 26.8123 16.8813 26.8067 16.8803C26.7689 16.8734 26.7305 16.8701 26.692 16.8704C26.3178 16.8704 26.048 17.046 25.6991 17.5166L25.7997 16.9135H24.7674L24.0726 20.8932H25.2133C25.6214 18.4593 25.7961 18.0331 26.3433 18.0331C26.3846 18.0331 26.4322 18.0366 26.4875 18.0432L26.6207 18.0718L27.034 16.9466V16.9466ZM19.186 18.1711C19.186 18.6738 19.4549 19.0201 20.0642 19.2803C20.5313 19.4802 20.6034 19.5387 20.6034 19.7195C20.6034 19.9672 20.3976 20.0789 19.9415 20.0789C19.5972 20.0789 19.2773 20.0302 18.908 19.9215L18.7498 20.8394L18.8008 20.8485L19.0121 20.8893C19.0802 20.9016 19.1805 20.9134 19.3135 20.924C19.5878 20.9464 19.8 20.957 19.9495 20.957C21.1663 20.957 21.7284 20.5368 21.7284 19.6291C21.7284 19.0829 21.4934 18.7627 20.9156 18.5215C20.4321 18.32 20.3761 18.2753 20.3761 18.0896C20.3761 17.8751 20.5679 17.7649 20.9405 17.7649C21.1671 17.7649 21.4761 17.7873 21.7691 17.8247L21.9334 16.9034C21.635 16.8606 21.182 16.8255 20.9187 16.8255C19.6287 16.8257 19.1821 17.4371 19.186 18.1711V18.1711ZM14.6714 20.8934H13.7241L13.7462 20.4808C13.4577 20.8074 13.0732 20.9622 12.5506 20.9622C11.9328 20.9622 11.5089 20.5188 11.5089 19.8753C11.5089 18.9058 12.2454 18.3407 13.5112 18.3407C13.641 18.3407 13.8058 18.3515 13.9756 18.3714C14.011 18.2406 14.0206 18.1841 14.0206 18.1129C14.0206 17.8495 13.8218 17.7509 13.2895 17.7509C12.9641 17.7509 12.5962 17.794 12.3422 17.8618L12.1843 17.9041L12.0821 17.9298L12.2401 17.0351C12.8084 16.8817 13.1835 16.8237 13.6048 16.8237C14.5845 16.8237 15.1022 17.228 15.1022 17.991C15.1022 18.1874 15.0851 18.3364 15.0096 18.7794L14.7714 20.1912L14.7313 20.4446L14.7022 20.6469L14.6827 20.7854L14.6714 20.8934V20.8934ZM13.8398 19.1204C13.7553 19.1094 13.6702 19.1039 13.585 19.104C12.939 19.104 12.6118 19.3075 12.6118 19.7094C12.6118 19.9571 12.7715 20.1152 13.0207 20.1152C13.4854 20.1154 13.8202 19.7089 13.8398 19.1204ZM18.4109 20.8074C18.0302 20.9155 17.6374 20.9698 17.2429 20.9688C15.9685 20.9678 15.3043 20.3564 15.3043 19.186C15.3043 17.8199 16.1493 16.8141 17.2964 16.8141C18.2348 16.8141 18.8341 17.3774 18.8341 18.2606C18.8341 18.5538 18.7931 18.8397 18.6942 19.2431H16.4277C16.4207 19.2844 16.4171 19.3262 16.4167 19.3681C16.4167 19.8294 16.7546 20.0647 17.4167 20.0647C17.8238 20.0647 18.1918 19.9869 18.6004 19.8129L18.4109 20.8074ZM17.8038 18.4395C17.81 18.3566 17.8133 18.2889 17.8133 18.2365C17.8133 17.9133 17.6135 17.7237 17.2741 17.7237C16.9115 17.7237 16.6522 17.978 16.547 18.4371L17.8038 18.4395ZM30.5773 19.0891C30.4067 20.4129 29.5294 21 28.3632 21C27.0736 21 26.5528 20.1757 26.5528 19.1656C26.5528 17.7552 27.4349 16.7995 28.7973 16.7995C29.9799 16.7995 30.6078 17.5854 30.6078 18.5956C30.6078 18.8414 30.6074 18.8577 30.5773 19.0891ZM29.4034 18.5798C29.4034 18.1636 29.2431 17.7706 28.7757 17.7706C28.194 17.7706 27.8335 18.4951 27.8335 19.1348C27.8335 19.6743 28.0806 20.0368 28.4881 20.0291C28.7352 20.0291 29.2621 19.6745 29.3663 19.055C29.3907 18.9105 29.4034 18.752 29.4034 18.5798V18.5798Z" fill="white"/>
</svg>
